<?xml version="1.0" encoding="iso-8859-1"?>
<!-- Generator: Adobe Illustrator 19.0.0, SVG Export Plug-In . SVG Version: 6.00 Build 0)  -->
<svg version="1.1" id="Capa_1" xmlns="http://www.w3.org/2000/svg" xmlns:xlink="http://www.w3.org/1999/xlink" x="0px" y="0px"
	 viewBox="0 0 512.003 512.003" style="enable-background:new 0 0 512.003 512.003;" xml:space="preserve">
<path style="fill:#84DD6E;" d="M365.843,205.951c-3.856-2.152-8.731-0.771-10.884,3.089l-90.966,163.052v-220.09
	c0-4.418-3.582-8-8-8s-8,3.582-8,8v220.09L157.027,209.04c-2.154-3.859-7.026-5.24-10.884-3.089
	c-3.858,2.153-5.241,7.025-3.089,10.884l101.338,181.644c0.851,1.524,2.132,2.648,3.601,3.334v102.19c0,4.418,3.582,8,8,8
	c4.418,0,8-3.582,8-8v-102.19c1.469-0.686,2.75-1.81,3.601-3.334l101.338-181.644C371.084,212.976,369.702,208.103,365.843,205.951z
	"/>
<path style="fill:#FB8BA4;" d="M322.642,0.453c-3.206-1.127-6.773-0.102-8.895,2.551l-25.753,32.191L262.241,3.004
	c-3.152-3.94-9.342-3.94-12.494,0l-25.753,32.191L198.241,3.004c-2.163-2.703-5.935-3.712-9.16-2.453
	c-3.035,1.186-5.087,4.193-5.087,7.451v80c0,39.701,32.299,72,72,72s72-32.299,72-72v-80C327.994,4.605,325.848,1.577,322.642,0.453
	z"/>
<path style="fill:#F96485;" d="M205.327,88.002v-76.14l-7.086-8.858c-2.163-2.703-5.935-3.712-9.16-2.453
	c-3.035,1.186-5.087,4.193-5.087,7.451v80c0,39.701,32.299,72,72,72c3.624,0,7.185-0.276,10.667-0.795
	C232,154.037,205.327,124.079,205.327,88.002z"/>
<path style="fill:#FB8BA4;" d="M181.737,121.968l-38.976-69.863c-1.649-2.954-5.161-4.59-8.484-3.96
	c-3.231,0.613-5.85,3.293-6.393,6.537l-6.806,40.659L82.905,79.775c-4.678-1.907-10.078,1.117-10.911,6.088l-6.806,40.659
	l-38.174-15.565c-3.063-1.25-6.673-0.439-8.91,1.995c-2.309,2.514-2.761,6.328-1.097,9.31l38.976,69.863
	c13.165,23.597,37.722,36.908,62.999,36.908c11.861,0,23.884-2.933,34.957-9.11C188.609,200.58,201.08,156.638,181.737,121.968z"/>
<path style="fill:#F96485;" d="M168.606,206.892c-11.073,6.178-23.096,9.11-34.957,9.11c-25.276,0-49.834-13.312-62.999-36.908
	l-36.358-65.17l-7.278-2.968c-3.063-1.25-6.673-0.439-8.91,1.995c-2.309,2.514-2.761,6.328-1.097,9.31l38.976,69.863
	c13.165,23.597,37.722,36.908,62.999,36.908c11.861,0,23.884-2.933,34.957-9.11c7.683-4.286,14.27-9.785,19.668-16.119
	C171.99,204.887,170.334,205.928,168.606,206.892z"/>
<path style="fill:#FB8BA4;" d="M493.984,113.062c-2.251-2.543-5.865-3.386-9.011-2.105l-38.174,15.565l-6.806-40.659
	c-0.832-4.972-6.232-7.995-10.911-6.088l-38.173,15.566l-6.806-40.659c-0.538-3.213-3.059-5.842-6.248-6.509
	c-3.385-0.709-6.944,0.912-8.629,3.932l-38.977,69.863c-19.342,34.67-6.872,78.612,27.798,97.955
	c11.076,6.179,23.093,9.11,34.957,9.11c25.274,0,49.835-13.313,62.999-36.908l38.976-69.863
	C496.635,119.295,496.236,115.607,493.984,113.062z"/>
<path style="fill:#F96485;" d="M379.382,225.923c-34.67-19.343-47.141-63.285-27.798-97.955l34.451-61.751l-1.931-11.535
	c-0.538-3.213-3.059-5.842-6.248-6.51c-3.385-0.708-6.944,0.912-8.629,3.932l-38.977,69.863
	c-19.342,34.67-6.872,78.612,27.798,97.955c8.445,4.711,17.437,7.529,26.491,8.604C382.801,227.732,381.079,226.87,379.382,225.923z
	"/>
<path style="fill:#5FCCEB;" d="M343.994,368.002c-17.146,0-70.785,23.48-88,31.22c-17.215-7.74-70.854-31.22-88-31.22
	c-22.056,0-40,17.944-40,40s17.944,40,40,40c14.227,0,53.579-16.166,76.402-26.093c-1.559,4.756-3.723,10.226-6.696,15.769
	c-10.68,19.915-26.438,31.49-46.838,34.404c-4.373,0.625-7.413,4.677-6.788,9.051c0.57,3.99,3.993,6.87,7.91,6.87
	c0.376,0,0.758-0.026,1.142-0.082c25.535-3.648,45.916-18.578,58.938-43.176c1.48-2.795,2.783-5.563,3.93-8.248
	c1.147,2.685,2.45,5.453,3.93,8.248c13.022,24.598,33.403,39.528,58.938,43.176c0.385,0.055,0.765,0.082,1.142,0.082
	c3.917,0,7.34-2.879,7.91-6.87c0.625-4.374-2.415-8.426-6.788-9.051c-20.399-2.915-36.158-14.49-46.838-34.404
	c-2.973-5.543-5.137-11.013-6.696-15.77c22.823,9.927,62.176,26.093,76.402,26.093c22.056,0,40-17.944,40-40
	S366.049,368.002,343.994,368.002z M167.994,432.002c-13.233,0-24-10.766-24-24s10.767-24,24-24c9.457,0,42.08,12.739,68.219,24
	C210.076,419.264,177.455,432.002,167.994,432.002z M343.994,432.002c-9.457,0-42.08-12.739-68.219-24
	c26.137-11.261,58.758-24,68.219-24c13.233,0,24,10.766,24,24S357.227,432.002,343.994,432.002z"/>
<g>
</g>
<g>
</g>
<g>
</g>
<g>
</g>
<g>
</g>
<g>
</g>
<g>
</g>
<g>
</g>
<g>
</g>
<g>
</g>
<g>
</g>
<g>
</g>
<g>
</g>
<g>
</g>
<g>
</g>
</svg>
